<svg width="72" height="73" viewBox="0 0 72 73" fill="none" xmlns="http://www.w3.org/2000/svg">
    <path d="M0 36.5273C0 16.6451 16.1178 0.527344 36 0.527344C55.8823 0.527344 72 16.6451 72 36.5273C72 56.4096 55.8823 72.5273 36 72.5273C16.1178 72.5273 0 56.4096 0 36.5273Z" fill="#E74040"/>
    <g clip-path="url(#clip0_2636_371)">
        <g clip-path="url(#clip1_2636_371)">
            <g clip-path="url(#clip2_2636_371)">
                <path d="M30.2754 44.1333H39.7247V48.858H30.2754V44.1333Z" fill="white"/>
                <path d="M34.9997 26.1792C29.2683 26.1792 24.6055 30.8421 24.6055 36.5735V50.7474C24.6055 52.8316 26.3011 54.5272 28.3852 54.5272H41.6142C43.6984 54.5272 45.394 52.8316 45.394 50.7474V36.5735C45.394 30.8421 40.7312 26.1792 34.9997 26.1792ZM29.3301 34.6836H40.6693V36.5735H38.7795V38.4633H36.8896V36.5735H29.3301V34.6836ZM41.6142 50.7474H28.3852V42.243H41.6142V50.7474Z" fill="white"/>
                <path d="M44.7042 24.3661L39.3411 22.5273L38.5566 24.8153C40.4519 25.3898 42.1545 26.4107 43.5422 27.7553L44.7042 24.3661Z" fill="white"/>
                <path d="M31.4425 24.8153L30.658 22.5273L25.2949 24.3661L26.4569 27.7553C27.8446 26.4108 29.5473 25.3898 31.4425 24.8153Z" fill="white"/>
            </g>
        </g>
    </g>
    <defs>
        <clipPath id="clip0_2636_371">
            <rect width="32" height="32" fill="white" transform="translate(19 22.5273)"/>
        </clipPath>
        <clipPath id="clip1_2636_371">
            <rect width="32" height="32" fill="white" transform="translate(19 22.5273)"/>
        </clipPath>
        <clipPath id="clip2_2636_371">
            <rect width="20.7885" height="32" fill="white" transform="translate(24.6055 22.5273)"/>
        </clipPath>
    </defs>
</svg>
