<svg width="72" height="73" viewBox="0 0 72 73" fill="none" xmlns="http://www.w3.org/2000/svg">
    <path d="M0 36.5273C0 16.6451 16.1178 0.527344 36 0.527344C55.8823 0.527344 72 16.6451 72 36.5273C72 56.4096 55.8823 72.5273 36 72.5273C16.1178 72.5273 0 56.4096 0 36.5273Z" fill="#E74040"/>
    <g clip-path="url(#clip0_2636_381)">
        <g clip-path="url(#clip1_2636_381)">
            <g clip-path="url(#clip2_2636_381)">
                <path d="M25.6129 48.0729H47.4103C47.477 48.0729 47.5417 48.0635 47.6038 48.0486C47.6088 48.0486 47.6129 48.0494 47.6178 48.0494C48.0832 48.0494 48.4612 47.6718 48.4612 47.2062V23.3707C48.4613 22.9052 48.0832 22.5273 47.6178 22.5273H47.412H26.9617H25.6141C23.3694 22.5273 21.5435 24.3536 21.5435 26.5977C21.5435 26.6278 21.5494 26.6564 21.5523 26.6854C21.5494 28.7584 21.5237 47.8065 21.5494 50.3106C21.5478 50.3596 21.5418 50.4074 21.5418 50.4568C21.5418 52.6147 23.2314 54.3812 25.3566 54.5147C25.3993 54.5212 25.4411 54.5274 25.4853 54.5274H47.6178C48.0831 54.5274 48.4611 54.1498 48.4611 53.6841V50.5096C48.4611 50.0443 48.083 49.6663 47.6178 49.6663C47.1525 49.6663 46.7744 50.0443 46.7744 50.5096V52.8408H25.6129C24.3313 52.8408 23.2852 51.8233 23.2338 50.5545C23.235 50.5319 23.2391 50.5105 23.2387 50.4874C23.2379 50.4504 23.2366 50.3927 23.2358 50.3161C23.3095 49.0674 24.346 48.0729 25.6129 48.0729ZM26.1879 26.5977C26.1879 26.1322 26.5657 25.7544 27.0313 25.7544C27.4968 25.7544 27.8746 26.1322 27.8746 26.5977V43.7281C27.8746 44.1934 27.4968 44.5715 27.0313 44.5715C26.5657 44.5715 26.1879 44.1934 26.1879 43.7281V26.5977Z" fill="white"/>
            </g>
        </g>
    </g>
    <defs>
        <clipPath id="clip0_2636_381">
            <rect width="32" height="32" fill="white" transform="translate(19 22.5273)"/>
        </clipPath>
        <clipPath id="clip1_2636_381">
            <rect width="32" height="32" fill="white" transform="translate(19 22.5273)"/>
        </clipPath>
        <clipPath id="clip2_2636_381">
            <rect width="26.9231" height="32.0001" fill="white" transform="translate(21.5381 22.5273)"/>
        </clipPath>
    </defs>
</svg>
